<?xml version="1.0" encoding="utf-8"?>
<!-- Generator: Adobe Illustrator 21.1.0, SVG Export Plug-In . SVG Version: 6.00 Build 0)  -->
<svg version="1.1" id="Layer_1" xmlns="http://www.w3.org/2000/svg" xmlns:xlink="http://www.w3.org/1999/xlink" x="0px" y="0px"
	 viewBox="0 0 491 428.4" style="enable-background:new 0 0 491 428.4;" xml:space="preserve">
<style type="text/css">
	.st0{fill:#2CA9BC;}
</style>
<path d="M478.5,113.5V215c0,47.5-31.9,88.2-76,99.4v103.2l-122-100.1H112.8c-55.3,0-100.3-45.9-100.3-102.5V113.4
	c0-56.5,45-102.5,100.3-102.5h265.5C433.5,11,478.5,56.9,478.5,113.5z M449.4,215V113.5c0-40.4-31.9-73.4-71.2-73.4H112.8
	c-39.2,0-71.2,32.9-71.2,73.4V215c0,40.4,31.9,73.4,71.2,73.4H291l82.5,67.7v-66.6l12.8-1.5C422.2,283.5,449.4,252.2,449.4,215
	L449.4,215z"/>
<path class="st0" d="M449.4,113.5V215c0,37.3-27.1,68.6-63.1,72.9l-12.8,1.5v66.5L291,288.3H112.8c-39.2,0-71.2-32.9-71.2-73.4
	V113.4c0-40.4,31.9-73.4,71.2-73.4h265.5C417.5,40.1,449.4,73,449.4,113.5z"/>
<path d="M124.8,202.3c-9.2,0.2-18.1-3.1-25-9.4c-7-6.3-10.5-15-10.5-26.2c-0.1-9.2,3.5-18,10.1-24.6c6.5-6.7,15.5-10.4,24.8-10.3
	c9.4-0.2,18.5,3.5,25.2,10.2c6.8,6.4,10.5,15.4,10.4,24.7c0,11.1-3.5,19.7-10.4,26.1C142.5,199.1,133.8,202.4,124.8,202.3z"/>
<path d="M245.9,202.3c-9.2,0.2-18.1-3.1-25.1-9.4c-7-6.3-10.5-15-10.5-26.2c-0.1-9.2,3.5-18,10.1-24.6c6.5-6.7,15.5-10.5,24.8-10.3
	c9.4-0.2,18.5,3.5,25.2,10.2c6.8,6.4,10.5,15.4,10.4,24.7c0,11.1-3.5,19.7-10.4,26.1C263.6,199.1,254.9,202.4,245.9,202.3z"/>
<path d="M367,202.3c-9.2,0.2-18.1-3.1-25.1-9.4c-7-6.3-10.5-15-10.5-26.2c-0.1-9.2,3.5-18,10.1-24.6c6.5-6.7,15.5-10.5,24.8-10.3
	c9.4-0.2,18.4,3.5,25.1,10.2c6.8,6.4,10.5,15.4,10.4,24.7c0,11.1-3.5,19.7-10.4,26.1C384.7,199,376,202.4,367,202.3z"/>
</svg>
