<?xml version="1.0" encoding="utf-8"?>
<!-- Generator: Adobe Illustrator 21.1.0, SVG Export Plug-In . SVG Version: 6.00 Build 0)  -->
<svg version="1.1" id="Layer_1" xmlns="http://www.w3.org/2000/svg" xmlns:xlink="http://www.w3.org/1999/xlink" x="0px" y="0px"
	 viewBox="0 0 24 24" style="enable-background:new 0 0 24 24;" xml:space="preserve">
<style type="text/css">
	.st0{fill:#2CA9BC;}
	.st1{fill:none;stroke:#000000;stroke-width:1.5;stroke-linecap:round;stroke-linejoin:round;}
</style>
<path class="st0" d="M14.5,18.4L13,17c-0.4-0.4-0.5-1-0.1-1.4c0,0,0,0,0,0l1.4-1.6H7v-4h7.3l-1.4-1.6C12.6,8,12.6,7.4,13,7l1.5-1.3
	c0.4-0.4,1-0.4,1.4,0c0,0,0,0,0.1,0.1l4.8,5.6c0.3,0.4,0.3,0.9,0,1.3L16,18.2C15.6,18.7,15,18.7,14.5,18.4
	C14.6,18.4,14.6,18.4,14.5,18.4z"/>
<path class="st1" d="M7,20H4c-0.6,0-1-0.4-1-1V5c0-0.6,0.4-1,1-1h3"/>
<path class="st1" d="M14.5,18.4L13,17c-0.4-0.4-0.5-1-0.1-1.4c0,0,0,0,0,0l1.4-1.6H7v-4h7.3l-1.4-1.6C12.6,8,12.6,7.4,13,7l1.5-1.3
	c0.4-0.4,1-0.4,1.4,0c0,0,0,0,0.1,0.1l4.8,5.6c0.3,0.4,0.3,0.9,0,1.3L16,18.2C15.6,18.7,15,18.7,14.5,18.4
	C14.6,18.4,14.6,18.4,14.5,18.4z"/>
</svg>
