<?xml version="1.0" encoding="utf-8"?>
<!-- Generator: Adobe Illustrator 21.1.0, SVG Export Plug-In . SVG Version: 6.00 Build 0)  -->
<svg version="1.1" id="Layer_1" xmlns="http://www.w3.org/2000/svg" xmlns:xlink="http://www.w3.org/1999/xlink" x="0px" y="0px"
	 viewBox="0 0 20 20" style="enable-background:new 0 0 20 20;" xml:space="preserve">
<style type="text/css">
	.st0{fill:#2CA9BC;}
	.st1{fill:none;stroke:#000000;stroke-width:1.5;stroke-linecap:round;stroke-linejoin:round;}
</style>
<g id="moon-alt" transform="translate(-2 -2)">
	<path id="secondary" class="st0" d="M21,12c0,5-4,9-9,9c-4.2,0-7.8-2.8-8.8-6.9C4.5,15.3,6.2,16,8,16c3.9,0,7-3.1,7-7
		c0-2.5-1.3-4.7-3.4-6H12C17,3,21,7,21,12z"/>
	<path id="primary" class="st1" d="M21,12c0,5-4,9-9,9c-4.2,0-7.8-2.8-8.8-6.9C4.5,15.3,6.2,16,8,16c3.9,0,7-3.1,7-7
		c0-2.5-1.3-4.7-3.4-6H12C17,3,21,7,21,12z"/>
</g>
</svg>
