<?xml version="1.0" encoding="utf-8"?>
<!-- Generator: Adobe Illustrator 21.1.0, SVG Export Plug-In . SVG Version: 6.00 Build 0)  -->
<svg version="1.1" id="Layer_1" xmlns="http://www.w3.org/2000/svg" xmlns:xlink="http://www.w3.org/1999/xlink" x="0px" y="0px"
	 viewBox="0 0 24 24" style="enable-background:new 0 0 24 24;" xml:space="preserve">
<style type="text/css">
	.st0{fill:#2CA9BC;}
	.st1{fill:none;stroke:#000000;stroke-width:1.5;stroke-linecap:round;stroke-linejoin:round;}
</style>
<path id="secondary" class="st0" d="M18,3H7v2H5v15c0,0.6,0.4,1,1,1h12c0.6,0,1-0.4,1-1V4C19,3.4,18.6,3,18,3z"/>
<path id="primary" class="st1" d="M15,17H9 M15,13H9 M15,9H9 M7,3h11c0.6,0,1,0.4,1,1v16c0,0.6-0.4,1-1,1H6c-0.6,0-1-0.4-1-1V5L7,3z
	 M5,5h2V3L5,5z"/>
</svg>
