<?xml version="1.0" encoding="utf-8"?>
<!-- Generator: Adobe Illustrator 21.1.0, SVG Export Plug-In . SVG Version: 6.00 Build 0)  -->
<svg version="1.1" id="Layer_1" xmlns="http://www.w3.org/2000/svg" xmlns:xlink="http://www.w3.org/1999/xlink" x="0px" y="0px"
	 viewBox="0 0 24 24" style="enable-background:new 0 0 24 24;" xml:space="preserve">
<style type="text/css">
	.st0{fill:#2CA9BC;}
	.st1{fill:none;stroke:#000000;stroke-width:1.5;stroke-linecap:round;stroke-linejoin:round;stroke-miterlimit:10;}
</style>
<g id="XMLID_1_">
	<g>
		<path class="st0" d="M2,15.5v-7c0-3.5,2-5,5-5h10c3,0,5,1.5,5,5v7c0,3.5-2,5-5,5H7C4,20.5,2,19,2,15.5z"/>
	</g>
	<g>
	</g>
</g>
<path class="st1" d="M12,20.5H7c-3,0-5-1.5-5-5v-7c0-3.5,2-5,5-5h10c3,0,5,1.5,5,5v3"/>
<path class="st1" d="M17,9l-3.1,2.5c-1,0.8-2.7,0.8-3.8,0L7,9"/>
<path class="st1" d="M19.8,14.8l-3.5,3.5c-0.1,0.1-0.3,0.4-0.3,0.6l-0.2,1.4c-0.1,0.5,0.3,0.8,0.8,0.8l1.4-0.2
	c0.2,0,0.5-0.2,0.6-0.3l3.5-3.5c0.6-0.6,0.9-1.3,0-2.2C21.2,13.9,20.5,14.2,19.8,14.8z"/>
<path class="st1" d="M19.3,15.3c0.3,1.1,1.1,1.9,2.2,2.2"/>
</svg>
