<?xml version="1.0" encoding="utf-8"?>
<!-- Generator: Adobe Illustrator 21.1.0, SVG Export Plug-In . SVG Version: 6.00 Build 0)  -->
<svg version="1.1" id="Layer_1" xmlns="http://www.w3.org/2000/svg" xmlns:xlink="http://www.w3.org/1999/xlink" x="0px" y="0px"
	 viewBox="0 0 24 24" style="enable-background:new 0 0 24 24;" xml:space="preserve">
<style type="text/css">
	.st0{fill:#2CA9BC;}
	.st1{fill:none;stroke:#000000;stroke-width:1.5;stroke-linecap:round;stroke-linejoin:round;stroke-miterlimit:10;}
	.st2{fill:none;stroke:#000000;stroke-width:1.5;stroke-linecap:round;stroke-linejoin:round;}
</style>
<g id="XMLID_1_">
	<g>
		<path class="st0" d="M22,8.5v7c0,3.5-2,5-5,5H7c-3,0-5-1.5-5-5v-7c0-3.5,2-5,5-5h10C20,3.5,22,5,22,8.5z"/>
	</g>
	<g>
	</g>
</g>
<path class="st1" d="M12,20.5H7c-3,0-5-1.5-5-5v-7c0-3.5,2-5,5-5h10c3,0,5,1.5,5,5v3"/>
<path class="st1" d="M17,9l-3.1,2.5c-1,0.8-2.7,0.8-3.8,0L7,9"/>
<path class="st2" d="M18.2,20.4c1.8,0,3.2-1.4,3.2-3.2c0-1.8-1.4-3.2-3.2-3.2c-1.8,0-3.2,1.4-3.2,3.2C15,19,16.4,20.4,18.2,20.4z"/>
<path class="st2" d="M22,21l-1-1"/>
</svg>
