<?xml version="1.0" encoding="utf-8"?>
<!-- Generator: Adobe Illustrator 21.1.0, SVG Export Plug-In . SVG Version: 6.00 Build 0)  -->
<svg version="1.1" id="Layer_1" xmlns="http://www.w3.org/2000/svg" xmlns:xlink="http://www.w3.org/1999/xlink" x="0px" y="0px"
	 viewBox="0 0 24 24" style="enable-background:new 0 0 24 24;" xml:space="preserve">
<style type="text/css">
	.st0{fill:#2CA9BC;}
	.st1{fill:none;stroke:#000000;stroke-width:1.5;stroke-linecap:round;stroke-linejoin:round;stroke-miterlimit:10;}
</style>
<g id="XMLID_2_">
	<g>
		<path class="st0" d="M2,15.5v-7c0-3.5,2-5,5-5h10c3,0,5,1.5,5,5v7c0,3.5-2,5-5,5H7C4,20.5,2,19,2,15.5z"/>
	</g>
	<g>
	</g>
</g>
<g id="XMLID_1_">
	<g>
	</g>
	<g>
		<path class="st1" d="M2,8.5c0-3.5,2-5,5-5h10c3,0,5,1.5,5,5v7c0,3.5-2,5-5,5H7"/>
		<path class="st1" d="M17,9l-3.1,2.5c-1,0.8-2.7,0.8-3.8,0L7,9"/>
		<line class="st1" x1="2" y1="16.5" x2="8" y2="16.5"/>
		<line class="st1" x1="2" y1="12.5" x2="5" y2="12.5"/>
	</g>
</g>
</svg>
