<?xml version="1.0" encoding="utf-8"?>
<!-- Generator: Adobe Illustrator 21.1.0, SVG Export Plug-In . SVG Version: 6.00 Build 0)  -->
<svg version="1.1" id="Layer_1" xmlns="http://www.w3.org/2000/svg" xmlns:xlink="http://www.w3.org/1999/xlink" x="0px" y="0px"
	 viewBox="0 0 20 20" style="enable-background:new 0 0 20 20;" xml:space="preserve">
<style type="text/css">
	.st0{fill:#2CA9BC;}
	.st1{fill:none;stroke:#000000;stroke-width:1.5;stroke-linecap:round;stroke-linejoin:round;}
</style>
<g id="user-7" transform="translate(-3 -2)">
	<path id="secondary" class="st0" d="M15.8,13.6c-2.2,1.9-5.5,1.9-7.7,0C5.6,14.7,4,17.2,4,20c0,0.6,0.4,1,1,1h14c0.6,0,1-0.4,1-1
		C20,17.2,18.4,14.7,15.8,13.6z"/>
	<path id="primary" class="st1" d="M8,13.7c-2.4,1.2-4,3.6-4,6.3c0,0.6,0.4,1,1,1h14c0.6,0,1-0.4,1-1c0-2.7-1.6-5.2-4-6.3"/>
	<circle id="primary-2" class="st1" cx="12" cy="9" r="6"/>
</g>
</svg>
