<?xml version="1.0" encoding="utf-8"?>
<!-- Generator: Adobe Illustrator 21.1.0, SVG Export Plug-In . SVG Version: 6.00 Build 0)  -->
<svg version="1.1" id="Layer_1" xmlns="http://www.w3.org/2000/svg" xmlns:xlink="http://www.w3.org/1999/xlink" x="0px" y="0px"
	 viewBox="0 0 20 20" style="enable-background:new 0 0 20 20;" xml:space="preserve">
<style type="text/css">
	.st0{fill:#2CA9BC;}
	.st1{fill:none;stroke:#000000;stroke-width:1.5;stroke-linecap:round;stroke-linejoin:round;}
</style>
<g id="add-user-3" transform="translate(-2 -2)">
	<path id="secondary" class="st0" d="M14.8,13.6c-2.2,1.9-5.5,1.9-7.7,0C4.6,14.7,3,17.2,3,20c0,0.6,0.4,1,1,1h14c0.6,0,1-0.4,1-1
		C19,17.2,17.4,14.7,14.8,13.6z"/>
	<path id="primary" class="st1" d="M17,5h4 M19,3v4"/>
	<path id="primary-2" class="st1" d="M16.6,11c-1.1,3.1-4.5,4.8-7.7,3.7S4.2,10.1,5.3,7C6.2,4.6,8.5,3,11,3c0.7,0,1.4,0.1,2,0.3"/>
	<path id="primary-3" class="st1" d="M6.8,13.8C4.5,15,3,17.4,3,20c0,0.6,0.4,1,1,1h14c0.6,0,1-0.4,1-1c0-2.6-1.5-5-3.8-6.2"/>
</g>
</svg>
