<?xml version="1.0" encoding="utf-8"?>
<!-- Generator: Adobe Illustrator 21.1.0, SVG Export Plug-In . SVG Version: 6.00 Build 0)  -->
<svg version="1.1" id="Layer_1" xmlns="http://www.w3.org/2000/svg" xmlns:xlink="http://www.w3.org/1999/xlink" x="0px" y="0px"
	 viewBox="0 0 20 20" style="enable-background:new 0 0 20 20;" xml:space="preserve">
<style type="text/css">
	.st0{fill:#2CA9BC;}
	.st1{fill:none;stroke:#000000;stroke-width:1.5;stroke-linecap:round;stroke-linejoin:round;}
</style>
<g id="minus-user-3" transform="translate(-2 -2)">
	<path id="secondary" class="st0" d="M14.8,13.6c-2.2,1.9-5.5,1.9-7.7,0C4.6,14.7,3,17.2,3,20c0,0.6,0.4,1,1,1h14c0.6,0,1-0.4,1-1
		C19,17.2,17.4,14.7,14.8,13.6z"/>
	<line id="primary" class="st1" x1="17" y1="5" x2="21" y2="5"/>
	<path id="primary-2" class="st1" d="M17,9c0,3.3-2.7,6-6,6s-6-2.7-6-6s2.7-6,6-6c0.7,0,1.4,0.1,2,0.3"/>
	<path id="primary-3" class="st1" d="M6.9,13.7C4.5,14.9,3,17.3,3,20c0,0.6,0.4,1,1,1h14c0.6,0,1-0.4,1-1c0-2.7-1.5-5.1-3.9-6.3"/>
</g>
</svg>
